#!OML:ASF F:\VICON\USERDATA\INSTALL\rory3\rory3.ASF
:FULLY-SPECIFIED
:DEGREES
282
root 0.824707 17.9221 18.0312 -0.90288 3.29236 1.99744
lowerback 10.2472 -1.34884 -4.95049
upperback 0.30378 -2.28967 1.54004
thorax -5.17666 -0.990373 4.74012
lowerneck -16.8248 -2.96178 -1.98719
upperneck 16.1331 -3.94831 2.02914
head 7.83418 -1.80015 0.539115
rclavicle -3.80673e-014 -7.95139e-016
rhumerus -35.2469 -26.9374 -73.2011
rradius 23.2269
rwrist 7.2238
rhand -16.9903 22.3959
rfingers 7.12502
rthumb 9.24469 -7.38147
lclavicle -3.80673e-014 -7.95139e-016
lhumerus -23.2512 -4.58259 83.3189
lradius 29.6172
lwrist 9.80078
lhand -23.7196 23.017
lfingers 7.12502
lthumb 2.7482 52.9791
rfemur -25.3093 5.83262 17.7178
rtibia 11.1234
rfoot -9.62255 -17.7525
rtoes -13.2936
lfemur 12.5974 -2.00002 -26.519
ltibia 15.4568
lfoot -14.046 -8.78497
ltoes -2.32029
283
root 0.805826 17.9078 18.2171 -0.971787 3.29824 2.18035
lowerback 10.2895 -1.32342 -5.18495
upperback 0.379458 -2.2882 1.4623
thorax -5.11508 -0.988565 4.79033
lowerneck -16.9172 -2.94336 -1.974
upperneck 16.1867 -3.95355 2.16839
head 7.8711 -1.7867 0.580911
rclavicle 1.87106e-014 4.77083e-015
rhumerus -35.2599 -27.2647 -73.1205
rradius 23.0158
rwrist 7.62909
rhand -17.1223 20.6068
rfingers 7.12502
rthumb 9.11735 -9.17612
lclavicle 1.87106e-014 4.77083e-015
lhumerus -23.1677 -4.79464 83.2254
lradius 30.1179
lwrist 9.612
lhand -24.3618 23.3698
lfingers 7.12502
lthumb 2.12798 53.3389
rfemur -25.4532 4.82879 18.1853
rtibia 12.0147
rfoot -8.96177 -16.289
rtoes -14.768
lfemur 13.1402 -2.01399 -26.5909
ltibia 15.8018
lfoot -13.695 -9.508
ltoes -1.31216
284
root 0.788013 17.8855 18.4125 -1.07064 3.20601 2.32139
lowerback 10.2975 -1.28479 -5.4059
upperback 0.435947 -2.26374 1.43018
thorax -5.05599 -0.97497 4.87715
lowerneck -16.928 -2.92588 -1.94066
upperneck 16.2048 -3.94262 2.18961
head 7.87853 -1.77708 0.583576
rclavicle -3.71976e-014 9.14409e-015
rhumerus -35.4042 -27.4561 -72.94
rradius 22.8108
rwrist 8.00277
rhand -16.9995 20.5103
rfingers 7.12502
rthumb 9.23581 -9.26741
lclavicle -3.71976e-014 9.14409e-015
lhumerus -23.1207 -4.49663 83.1029
lradius 30.4953
lwrist 8.93826
lhand -25.4938 23.7084
lfingers 7.12502
lthumb 1.03469 53.6856
rfemur -25.7718 3.58322 18.8348
rtibia 13.473
rfoot -7.95809 -14.5921
rtoes -16.2227
lfemur 13.5829 -2.03429 -26.6769
ltibia 16.3208
lfoot -13.602 -9.68226
ltoes -4.39893
285
root 0.773352 17.8639 18.5998 -1.09402 3.10369 2.09226
lowerback 10.3368 -1.29572 -5.20729
upperback 0.429922 -2.25326 1.50243
thorax -5.09012 -0.972346 4.84133
lowerneck -16.9364 -2.91645 -1.97254
upperneck 16.2648 -3.9302 2.22556
head 7.90117 -1.76911 0.601726
rclavicle -4.24902e-015 7.15625e-015
rhumerus -35.59 -27.6451 -72.753
rradius 22.5966
rwrist 8.46796
rhand -17.2468 20.4279
rfingers 7.12502
rthumb 8.99723 -9.36029
lclavicle -4.24902e-015 7.15625e-015
lhumerus -23.1115 -4.14727 83.0228
lradius 30.736
lwrist 8.64043
lhand -25.22 24.2845
lfingers 7.12502
lthumb 1.29907 54.2603
rfemur -26.2071 2.78786 19.7171
rtibia 15.1428
rfoot -7.46932 -13.0667
rtoes -15.6119
lfemur 13.733 -2.20796 -26.4172
ltibia 17.0697
lfoot -13.4612 -9.58638
ltoes -8.15507
286
root 0.760155 17.8463 18.792 -1.04424 3.12288 2.03806
lowerback 10.215 -1.31202 -5.12031
upperback 0.469257 -2.25691 1.51891
thorax -4.98242 -0.980697 4.80365
lowerneck -17.0286 -2.93155 -2.04035
upperneck 16.2779 -3.93993 2.26463
head 7.9241 -1.77309 0.623303
rclavicle -5.49143e-015 1.90833e-014
rhumerus -35.6048 -27.9236 -72.6139
rradius 22.3294
rwrist 8.80244
rhand -17.0728 20.7122
rfingers 7.12502
rthumb 9.1651 -9.06862
lclavicle -5.49143e-015 1.90833e-014
lhumerus -23.047 -4.04269 83.001
lradius 31.1042
lwrist 8.74584
lhand -24.25 25.0245
lfingers 7.12502
lthumb 2.23596 54.9925
rfemur -26.5397 2.07511 20.3049
rtibia 16.8628
rfoot -8.26357 -11.3896
rtoes -11.9761
lfemur 13.8139 -2.33799 -26.2796
ltibia 17.9751
lfoot -13.3831 -9.67798
ltoes -10.396
287
root 0.745625 17.8244 18.9948 -1.04315 3.08121 2.23625
lowerback 10.0005 -1.28173 -5.28862
upperback 0.570494 -2.22703 1.43797
thorax -4.75617 -0.973222 4.79789
lowerneck -16.9819 -2.94674 -1.99417
upperneck 16.0789 -3.96271 2.23822
head 7.84872 -1.78543 0.605912
rclavicle 2.3233e-014 1.90833e-014
rhumerus -35.6211 -28.2613 -72.5083
rradius 22.1545
rwrist 9.05247
rhand -16.6243 21.1852
rfingers 7.12502
rthumb 9.59788 -8.57621
lclavicle 2.3233e-014 1.90833e-014
lhumerus -22.8903 -4.09669 82.9503
lradius 31.2292
lwrist 8.7988
lhand -24.3646 24.9767
lfingers 7.12502
lthumb 2.1252 54.9459
rfemur -26.6388 1.60067 20.5447
rtibia 18.4379
rfoot -10.2763 -9.94205
rtoes -7.8132
lfemur 13.9228 -2.45186 -26.4149
ltibia 19.0458
lfoot -13.2083 -10.0437
ltoes -11.8806
288
root 0.729688 17.8092 19.1987 -1.11754 2.9904 2.26295
lowerback 9.9086 -1.24901 -5.30873
upperback 0.643142 -2.18038 1.41854
thorax -4.63385 -0.955857 4.77707
lowerneck -16.9192 -2.8994 -1.89194
upperneck 15.9026 -3.89758 2.12225
head 7.77316 -1.76148 0.560347
rclavicle -1.61761e-014 7.55382e-015
rhumerus -35.6726 -28.951 -72.1325
rradius 21.7781
rwrist 9.77923
rhand -16.6021 20.5645
rfingers 7.12502
rthumb 9.61931 -9.19585
lclavicle -1.61761e-014 7.55382e-015
lhumerus -22.8268 -4.10878 82.9494
lradius 31.276
lwrist 9.04316
lhand -23.9558 24.6298
lfingers 7.12502
lthumb 2.52004 54.5946
rfemur -26.6419 1.37427 20.9279
rtibia 20.0103
rfoot -10.4201 -8.79849
rtoes -7.89956
lfemur 14.1729 -2.78288 -26.4163
ltibia 19.9874
lfoot -12.2458 -10.6357
ltoes -10.7436
289
root 0.713988 17.8154 19.406 -1.21381 3.16031 2.24573
lowerback 9.96263 -1.32584 -5.28851
upperback 0.574 -2.28394 1.43242
thorax -4.72462 -1.00265 4.79765
lowerneck -16.8501 -2.78795 -1.81644
upperneck 16.0521 -3.74739 2.01031
head 7.80374 -1.69623 0.528822
rclavicle -4.79568e-015 -7.55382e-015
rhumerus -35.85 -29.459 -71.6788
rradius 21.2423
rwrist 10.4662
rhand -16.8967 20.0307
rfingers 7.12502
rthumb 9.33501 -9.74263
lclavicle -4.79568e-015 -7.55382e-015
lhumerus -23.1362 -3.90611 82.9457
lradius 31.5029
lwrist 9.17354
lhand -23.9744 24.2086
lfingers 7.12502
lthumb 2.50209 54.1737
rfemur -26.5229 1.38834 21.155
rtibia 21.326
rfoot -10.3274 -8.20351
rtoes -5.82278
lfemur 14.4526 -3.18493 -26.3037
ltibia 20.9359
lfoot -11.1162 -11.4512
ltoes -10.2846
290
root 0.704693 17.832 19.6216 -1.32432 3.54497 2.41577
lowerback 9.97727 -1.45676 -5.3452
upperback 0.538575 -2.46734 1.40567
thorax -4.74691 -1.09078 4.82675
lowerneck -16.9606 -2.73303 -1.83923
upperneck 16.381 -3.63548 1.82354
head 7.92673 -1.66037 0.480886
rclavicle -2.67862e-014 1.51076e-014
rhumerus -36.0224 -29.817 -71.2694
rradius 20.8829
rwrist 10.9813
rhand -16.9608 19.9481
rfingers 7.12502
rthumb 9.27318 -9.82797
lclavicle -2.67862e-014 1.51076e-014
lhumerus -23.4985 -3.71091 83.0305
lradius 31.7865
lwrist 9.4043
lhand -26.0089 21.2407
lfingers 7.12502
lthumb 0.537108 51.2197
rfemur -26.3081 1.40092 20.948
rtibia 22.2263
rfoot -6.89162 -7.57771
rtoes -10.7836
lfemur 14.5547 -3.55417 -26.3742
ltibia 22.1495
lfoot -10.3215 -12.2591
ltoes -13.5299
